<svg width="1em" height="1em" viewBox="0 0 28 28" fill="none" xmlns="http://www.w3.org/2000/svg">

    <path
        d="M26.5015 5.55304H13.9632L13.8508 4.82379C13.7253 4.0093 12.9482 3.3429 12.1241 3.3429H6.09297C5.26881 3.3429 4.49173 4.0093 4.36635 4.82379L4.25392 5.55304H3.82654C3.00246 5.55304 2.32812 6.22737 2.32812 7.05145V23.1586C2.32812 23.9828 3.00246 24.657 3.82654 24.657H26.5014C27.3255 24.657 27.9999 23.9828 27.9999 23.1586V7.05152C28.0001 6.22737 27.3256 5.55304 26.5015 5.55304Z"
        fill="#1983D3" />
    <path d="M26.1933 7.16797H3.7168V22.4029H26.1933V7.16797Z" fill="white" />
    <path
        d="M25.6906 10.2916C25.5598 9.47786 24.7784 8.81213 23.9544 8.81213H1.27939C0.455228 8.81213 -0.112084 9.47786 0.0187759 10.2916L2.09044 23.1777C2.2213 23.9914 3.00265 24.6571 3.82673 24.6571H26.5016C27.3257 24.6571 27.893 23.9914 27.7622 23.1777L25.6906 10.2916Z"
        fill="#199AFC" />

</svg>