<svg width="18" height="18" viewBox="0 0 18 18" fill="none" xmlns="http://www.w3.org/2000/svg">
<path d="M14.25 5.25H3.75C2.92157 5.25 2.25 5.92157 2.25 6.75V13.5C2.25 14.3284 2.92157 15 3.75 15H14.25C15.0784 15 15.75 14.3284 15.75 13.5V6.75C15.75 5.92157 15.0784 5.25 14.25 5.25Z" stroke="currentColor" stroke-width="1.6" stroke-linecap="round" stroke-linejoin="round"/>
<path d="M6 5.25V3.75C6 3.35218 6.15804 2.97064 6.43934 2.68934C6.72064 2.40804 7.10218 2.25 7.5 2.25H10.5C10.8978 2.25 11.2794 2.40804 11.5607 2.68934C11.842 2.97064 12 3.35218 12 3.75V5.25" stroke="currentColor" stroke-width="1.6" stroke-linecap="round" stroke-linejoin="round"/>
<path d="M9 9V9.0075" stroke="currentColor" stroke-width="1.6" stroke-linecap="round" stroke-linejoin="round"/>
<path d="M2.25 9.75C4.34369 10.805 6.65552 11.3546 9 11.3546C11.3445 11.3546 13.6563 10.805 15.75 9.75" stroke="currentColor" stroke-width="1.6" stroke-linecap="round" stroke-linejoin="round"/>
</svg>
