<svg xmlns="http://www.w3.org/2000/svg" width="1em" height="1em" fill="none" viewBox="0 0 18 18"><path stroke="currentColor" stroke-linecap="round" stroke-linejoin="round" stroke-width="1.6" d="M14.25 5.25H3.75c-.83 0-1.5.67-1.5 1.5v6.75c0 .83.67 1.5 1.5 1.5h10.5c.83 0 1.5-.67 1.5-1.5V6.75c0-.83-.67-1.5-1.5-1.5ZM6 5.25v-1.5a1.5 1.5 0 0 1 1.5-1.5h3a1.5 1.5 0 0 1 1.5 1.5v1.5M9 9v0"/><path stroke="currentColor" stroke-linecap="round" stroke-linejoin="round" stroke-width="1.6" d="M2.25 9.75a15 15 0 0 0 13.5 0"/></svg>