<svg width="1em" height="1em" viewBox="0 0 14 14" fill="none" xmlns="http://www.w3.org/2000/svg">
<path fill-rule="evenodd" clip-rule="evenodd" d="M2.00628 2.00628C2.34799 1.66457 2.90201 1.66457 3.24372 2.00628L7 5.76256L10.7563 2.00628C11.098 1.66457 11.652 1.66457 11.9937 2.00628C12.3354 2.34799 12.3354 2.90201 11.9937 3.24372L8.23744 7L11.9937 10.7563C12.3354 11.098 12.3354 11.652 11.9937 11.9937C11.652 12.3354 11.098 12.3354 10.7563 11.9937L7 8.23744L3.24372 11.9937C2.90201 12.3354 2.34799 12.3354 2.00628 11.9937C1.66457 11.652 1.66457 11.098 2.00628 10.7563L5.76256 7L2.00628 3.24372C1.66457 2.90201 1.66457 2.34799 2.00628 2.00628Z" fill="currentColor"/>
</svg>
