<svg xmlns="http://www.w3.org/2000/svg" width="1em" height="1em" fill="none" viewBox="0 0 18 18"><path stroke="currentColor" stroke-linecap="round" stroke-linejoin="round" stroke-width="1.6" d="M6.8 3H9l1.5 1.5h3.8A1.5 1.5 0 0 1 15.7 6v5.3a1.5 1.5 0 0 1-1.4 1.4H6.7a1.5 1.5 0 0 1-1.5-1.4V4.5A1.5 1.5 0 0 1 6.8 3Z"/><path stroke="currentColor" stroke-linecap="round" stroke-linejoin="round" stroke-width="1.6" d="M12.8 12.8v1.4a1.5 1.5 0 0 1-1.6 1.6H3.8a1.5 1.5 0 0 1-1.5-1.6V7.5A1.5 1.5 0 0 1 3.8 6h1.5"/></svg>