<svg width="1em" height="1em" viewBox="0 0 18 18" fill="none" xmlns="http://www.w3.org/2000/svg">
<path d="M6.75 3.75H5.25C4.85218 3.75 4.47064 3.90804 4.18934 4.18934C3.90804 4.47064 3.75 4.85218 3.75 5.25V14.25C3.75 14.6478 3.90804 15.0294 4.18934 15.3107C4.47064 15.592 4.85218 15.75 5.25 15.75H12.75C13.1478 15.75 13.5294 15.592 13.8107 15.3107C14.092 15.0294 14.25 14.6478 14.25 14.25V5.25C14.25 4.85218 14.092 4.47064 13.8107 4.18934C13.5294 3.90804 13.1478 3.75 12.75 3.75H11.25" stroke="currentColor" stroke-width="1.6" stroke-linecap="round" stroke-linejoin="round"/>
<path d="M9.75 2.25H8.25C7.42157 2.25 6.75 2.92157 6.75 3.75C6.75 4.57843 7.42157 5.25 8.25 5.25H9.75C10.5784 5.25 11.25 4.57843 11.25 3.75C11.25 2.92157 10.5784 2.25 9.75 2.25Z" stroke="currentColor" stroke-width="1.6" stroke-linecap="round" stroke-linejoin="round"/>
<path d="M6.75 9H6.7575" stroke="currentColor" stroke-width="1.6" stroke-linecap="round" stroke-linejoin="round"/>
<path d="M9.75 9H11.25" stroke="currentColor" stroke-width="1.6" stroke-linecap="round" stroke-linejoin="round"/>
<path d="M6.75 12H6.7575" stroke="currentColor" stroke-width="1.6" stroke-linecap="round" stroke-linejoin="round"/>
<path d="M9.75 12H11.25" stroke="currentColor" stroke-width="1.6" stroke-linecap="round" stroke-linejoin="round"/>
</svg>
