<svg width="1em" height="1em" viewBox="0 0 18 18" fill="none" xmlns="http://www.w3.org/2000/svg">
  <path d="M7.5 10.5C7.74441 10.7495 8.03614 10.9477 8.3581 11.0829C8.68005 11.2182 9.02577 11.2879 9.375 11.2879C9.72423 11.2879 10.0699 11.2182 10.3919 11.0829C10.7139 10.9477 11.0056 10.7495 11.25 10.5L14.25 7.50004C14.7473 7.00276 15.0267 6.3283 15.0267 5.62504C15.0267 4.92178 14.7473 4.24732 14.25 3.75004C13.7527 3.25276 13.0783 2.97339 12.375 2.97339C11.6717 2.97339 10.9973 3.25276 10.5 3.75004L10.125 4.12504" stroke="currentColor" stroke-width="1.6" stroke-linecap="round" stroke-linejoin="round" />
  <path d="M10.4998 7.50004C10.2554 7.25059 9.96366 7.05242 9.6417 6.91713C9.31974 6.78184 8.97402 6.71216 8.62479 6.71216C8.27557 6.71216 7.92985 6.78184 7.60789 6.91713C7.28593 7.05242 6.9942 7.25059 6.74979 7.50004L3.74979 10.5C3.25251 10.9973 2.97314 11.6718 2.97314 12.375C2.97314 13.0783 3.25251 13.7528 3.74979 14.25C4.24708 14.7473 4.92153 15.0267 5.62479 15.0267C6.32806 15.0267 7.00251 14.7473 7.49979 14.25L7.87479 13.875" stroke="currentColor" stroke-width="1.6" stroke-linecap="round" stroke-linejoin="round" />
</svg>