<svg xmlns="http://www.w3.org/2000/svg" width="1em" height="1em" fill="none"><path fill="currentColor" d="M3 12.2h18v1.5h-4.4c.3.5.4 1 .4 1.6a3.3 3.3 0 0 1-1.3 2.7c-1 .7-2.3 1-3.5 1-.9 0-1.8-.2-2.6-.5-.8-.4-1.4-.9-2-1.5-.4-.7-.6-1.4-.6-2.2v-.1h2v.1a2.2 2.2 0 0 0 .9 1.8c.7.5 1.5.8 2.3.7.7 0 1.5-.1 2-.5a1.7 1.7 0 0 0 .8-1.5 1.7 1.7 0 0 0-1-1.6H3v-1.5Zm13.3-5.1c-.4-.7-1-1.2-1.7-1.6-.8-.3-1.6-.5-2.5-.5-1.2 0-2.4.3-3.4 1a3.4 3.4 0 0 0-1 4.2h2.7L10 10a1.6 1.6 0 0 1-.6-1.3 1.8 1.8 0 0 1 .6-1.5c.6-.4 1.3-.6 2-.5a3 3 0 0 1 2.1.6 2.4 2.4 0 0 1 .8 1.9h2c0-.8-.3-1.5-.7-2.1Z"/></svg>