<svg width="1em" height="1em" viewBox="0 0 24 24" fill="none" xmlns="http://www.w3.org/2000/svg">
<path fill-rule="evenodd" clip-rule="evenodd" d="M11 4C10.6212 4 10.275 4.214 10.1056 4.55279L9.38197 6H6C5.44772 6 5 6.44772 5 7C5 7.55228 5.44772 8 6 8L6 18C6 19.1046 6.89543 20 8 20H16C17.1046 20 18 19.1046 18 18V8C18.5523 8 19 7.55228 19 7C19 6.44772 18.5523 6 18 6H14.618L13.8944 4.55279C13.725 4.214 13.3788 4 13 4H11ZM9 10C9 9.44772 9.44772 9 10 9C10.5523 9 11 9.44772 11 10V16C11 16.5523 10.5523 17 10 17C9.44772 17 9 16.5523 9 16V10ZM14 9C13.4477 9 13 9.44772 13 10V16C13 16.5523 13.4477 17 14 17C14.5523 17 15 16.5523 15 16V10C15 9.44772 14.5523 9 14 9Z" fill="currentColor"/>
</svg>
