<svg width="24" height="24" viewBox="0 0 24 24" fill="none" xmlns="http://www.w3.org/2000/svg">
<path d="M15.6098 12C15.6098 13.9907 13.9901 15.6095 11.9997 15.6095C10.0093 15.6095 8.39083 13.9907 8.39083 12C8.39083 10.0093 10.0099 8.39053 12.0003 8.39053C13.9907 8.39053 15.6104 10.0093 15.6104 12H15.6098ZM11.9997 0C5.38344 0 0 5.38358 0 12C0 18.6164 5.38344 24 11.9997 24C14.4236 24 16.7617 23.2787 18.7596 21.9126L18.7938 21.8886L17.1766 20.0091L17.1499 20.0274C15.6092 21.0175 13.823 21.5421 11.9997 21.54C6.73941 21.54 2.46002 17.2604 2.46002 12C2.46002 6.73895 6.73941 2.46 11.9997 2.46C17.2606 2.46 21.54 6.73958 21.54 12C21.54 12.6821 21.4641 13.3718 21.3148 14.0507C21.0131 15.2886 20.1461 15.6682 19.4955 15.6183C18.8405 15.5646 18.0748 15.0985 18.0698 13.9573V12C18.0698 8.65263 15.3473 5.93053 11.9997 5.93053C8.65269 5.93053 5.93018 8.65263 5.93018 12C5.93018 15.3474 8.65269 18.0695 11.9997 18.0695C12.7973 18.0724 13.5877 17.9157 14.3256 17.6082C15.0635 17.3008 15.7345 16.8487 16.3002 16.2777C16.9689 17.3185 18.058 17.9703 19.2983 18.0695C20.2838 18.1474 21.2638 17.8602 22.0569 17.2611C22.7759 16.7154 23.3133 15.9253 23.61 14.9766C23.6573 14.8238 23.7437 14.4726 23.745 14.4707L23.7468 14.4581C23.9216 13.6964 24 12.9373 24 12C24 5.38358 18.6166 0 11.9997 0Z" fill="#FF9E00"/>
</svg>
