<svg width="24" height="24" viewBox="0 0 24 24" fill="none" xmlns="http://www.w3.org/2000/svg">
<rect width="24" height="24" rx="12" fill="#33AADE"/>
<path fill-rule="evenodd" clip-rule="evenodd" d="M4.89009 11.7442C8.37904 10.1967 10.7017 9.16849 11.868 8.66964C15.1875 7.25452 15.8852 7.01018 16.3338 7C16.4335 7 16.6528 7.02036 16.8023 7.14253C16.922 7.24434 16.9519 7.37669 16.9718 7.47849C16.9917 7.5803 17.0117 7.7941 16.9917 7.95699C16.8123 9.89132 16.0348 14.5846 15.636 16.7429C15.4666 17.6592 15.1376 17.9646 14.8186 17.9952C14.1208 18.0562 13.5925 17.5269 12.9246 17.0789C11.868 16.3764 11.2798 15.9387 10.2531 15.2464C9.06686 14.4523 9.83442 14.0145 10.5123 13.3019C10.6917 13.1186 13.752 10.268 13.8118 10.0135C13.8218 9.98295 13.8218 9.86078 13.752 9.79969C13.6822 9.73861 13.5825 9.75897 13.5028 9.77933C13.3931 9.79969 11.7185 10.9399 8.45878 13.1899C7.9803 13.5258 7.55166 13.6887 7.16289 13.6785C6.73425 13.6684 5.91684 13.4342 5.2988 13.2306C4.55117 12.9863 3.95306 12.8539 4.0029 12.4263C4.03281 12.2023 4.33186 11.9784 4.89009 11.7442Z" fill="white"/>
</svg>
