<svg width="1em" height="1em" viewBox="0 0 12 12" fill="none" xmlns="http://www.w3.org/2000/svg">
<path fill-rule="evenodd" clip-rule="evenodd" d="M11.9999 6.00008C11.9999 9.22174 9.38825 11.8334 6.16659 11.8334C2.94492 11.8334 0.333252 9.22174 0.333252 6.00008C0.333252 2.77842 2.94492 0.166748 6.16659 0.166748C9.38825 0.166748 11.9999 2.77842 11.9999 6.00008ZM4.39887 4.23238C4.56972 4.06152 4.84673 4.06152 5.01759 4.23238L6.16657 5.38136L7.31554 4.23239C7.48639 4.06153 7.7634 4.06153 7.93425 4.23239C8.10511 4.40324 8.10511 4.68025 7.93425 4.85111L6.78529 6.00008L7.93424 7.14903C8.1051 7.31989 8.1051 7.5969 7.93424 7.76775C7.76339 7.93861 7.48638 7.93861 7.31552 7.76775L6.16657 6.61879L5.0176 7.76776C4.84675 7.93862 4.56974 7.93862 4.39888 7.76776C4.22803 7.59691 4.22803 7.3199 4.39888 7.14904L5.54785 6.00008L4.39887 4.8511C4.22801 4.68024 4.22801 4.40323 4.39887 4.23238Z" fill="currentColor"/>
</svg>
